{
	"asset":{
		"generator":"Khronos glTF Blender I/O v4.5.47",
		"version":"2.0"
	},
	"scene":0,
	"scenes":[
		{
			"name":"Scene",
			"nodes":[
				0,
				1,
				2,
				3
			]
		}
	],
	"nodes":[
		{
			"mesh":0,
			"name":"Torus",
			"rotation":[
				-0.7682737112045288,
				0,
				0,
				0.6401214599609375
			],
			"scale":[
				0.3893531560897827,
				0.9860841631889343,
				0.42336007952690125
			],
			"translation":[
				0,
				4.668968677520752,
				0
			]
		},
		{
			"mesh":1,
			"name":"Suzanne",
			"translation":[
				0,
				3.1456377506256104,
				0
			]
		},
		{
			"mesh":2,
			"name":"collider_plane",
			"scale":[
				4.941770553588867,
				4.941770553588867,
				4.941770553588867
			],
			"translation":[
				0,
				-0.7635666728019714,
				0
			]
		},
		{
			"mesh":3,
			"name":"collider_plane.001",
			"rotation":[
				0,
				0,
				0.22315146028995514,
				0.9747837781906128
			],
			"scale":[
				4.941770553588867,
				4.941770553588867,
				4.941770553588867
			],
			"translation":[
				9.337130546569824,
				1.31582510471344,
				-0.1852356344461441
			]
		}
	],
	"meshes":[
		{
			"name":"Torus.001",
			"primitives":[
				{
					"attributes":{
						"POSITION":0,
						"NORMAL":1,
						"TEXCOORD_0":2
					},
					"indices":3
				}
			]
		},
		{
			"name":"Suzanne.001",
			"primitives":[
				{
					"attributes":{
						"POSITION":4,
						"NORMAL":5,
						"TEXCOORD_0":6
					},
					"indices":7
				}
			]
		},
		{
			"name":"collider_Plane.002",
			"primitives":[
				{
					"attributes":{
						"POSITION":8,
						"NORMAL":9,
						"TEXCOORD_0":10
					},
					"indices":11
				}
			]
		},
		{
			"name":"collider_Plane.001",
			"primitives":[
				{
					"attributes":{
						"POSITION":12,
						"NORMAL":13,
						"TEXCOORD_0":14
					},
					"indices":11
				}
			]
		}
	],
	"accessors":[
		{
			"bufferView":0,
			"componentType":5126,
			"count":2304,
			"max":[
				1.25,
				0.25,
				1.25
			],
			"min":[
				-1.25,
				-0.25,
				-1.25
			],
			"type":"VEC3"
		},
		{
			"bufferView":1,
			"componentType":5126,
			"count":2304,
			"type":"VEC3"
		},
		{
			"bufferView":2,
			"componentType":5126,
			"count":2304,
			"type":"VEC2"
		},
		{
			"bufferView":3,
			"componentType":5123,
			"count":3456,
			"type":"SCALAR"
		},
		{
			"bufferView":4,
			"componentType":5126,
			"count":1970,
			"max":[
				1.3671875,
				0.984375,
				0.8515625
			],
			"min":[
				-1.3671875,
				-0.984375,
				-0.8515625
			],
			"type":"VEC3"
		},
		{
			"bufferView":5,
			"componentType":5126,
			"count":1970,
			"type":"VEC3"
		},
		{
			"bufferView":6,
			"componentType":5126,
			"count":1970,
			"type":"VEC2"
		},
		{
			"bufferView":7,
			"componentType":5123,
			"count":2904,
			"type":"SCALAR"
		},
		{
			"bufferView":8,
			"componentType":5126,
			"count":4,
			"max":[
				1,
				0,
				1
			],
			"min":[
				-1,
				0,
				-1
			],
			"type":"VEC3"
		},
		{
			"bufferView":9,
			"componentType":5126,
			"count":4,
			"type":"VEC3"
		},
		{
			"bufferView":10,
			"componentType":5126,
			"count":4,
			"type":"VEC2"
		},
		{
			"bufferView":11,
			"componentType":5123,
			"count":6,
			"type":"SCALAR"
		},
		{
			"bufferView":12,
			"componentType":5126,
			"count":4,
			"max":[
				1,
				0,
				1
			],
			"min":[
				-1,
				0,
				-1
			],
			"type":"VEC3"
		},
		{
			"bufferView":13,
			"componentType":5126,
			"count":4,
			"type":"VEC3"
		},
		{
			"bufferView":14,
			"componentType":5126,
			"count":4,
			"type":"VEC2"
		}
	],
	"bufferViews":[
		{
			"buffer":0,
			"byteLength":27648,
			"byteOffset":0,
			"target":34962
		},
		{
			"buffer":0,
			"byteLength":27648,
			"byteOffset":27648,
			"target":34962
		},
		{
			"buffer":0,
			"byteLength":18432,
			"byteOffset":55296,
			"target":34962
		},
		{
			"buffer":0,
			"byteLength":6912,
			"byteOffset":73728,
			"target":34963
		},
		{
			"buffer":0,
			"byteLength":23640,
			"byteOffset":80640,
			"target":34962
		},
		{
			"buffer":0,
			"byteLength":23640,
			"byteOffset":104280,
			"target":34962
		},
		{
			"buffer":0,
			"byteLength":15760,
			"byteOffset":127920,
			"target":34962
		},
		{
			"buffer":0,
			"byteLength":5808,
			"byteOffset":143680,
			"target":34963
		},
		{
			"buffer":0,
			"byteLength":48,
			"byteOffset":149488,
			"target":34962
		},
		{
			"buffer":0,
			"byteLength":48,
			"byteOffset":149536,
			"target":34962
		},
		{
			"buffer":0,
			"byteLength":32,
			"byteOffset":149584,
			"target":34962
		},
		{
			"buffer":0,
			"byteLength":12,
			"byteOffset":149616,
			"target":34963
		},
		{
			"buffer":0,
			"byteLength":48,
			"byteOffset":149628,
			"target":34962
		},
		{
			"buffer":0,
			"byteLength":48,
			"byteOffset":149676,
			"target":34962
		},
		{
			"buffer":0,
			"byteLength":32,
			"byteOffset":149724,
			"target":34962
		}
	],
	"buffers":[
		{
			"byteLength":149756,
			"uri":"suzanne_with_ring.bin"
		}
	]
}
