{
	"asset":{
		"generator":"Khronos glTF Blender I/O v4.5.47",
		"version":"2.0"
	},
	"scene":0,
	"scenes":[
		{
			"name":"Scene",
			"nodes":[
				0,
				1,
				2,
				3,
				4,
				5,
				6,
				7,
				8
			]
		}
	],
	"nodes":[
		{
			"mesh":0,
			"name":"Torus",
			"rotation":[
				-0.7682737112045288,
				0,
				0,
				0.6401214599609375
			],
			"scale":[
				0.3893531560897827,
				0.9860841035842896,
				0.42336007952690125
			],
			"translation":[
				-28.787324905395508,
				-9.782354354858398,
				30.095260620117188
			]
		},
		{
			"mesh":1,
			"name":"Suzanne",
			"translation":[
				0,
				3.1456377506256104,
				0
			]
		},
		{
			"mesh":2,
			"name":"collider_plane.001",
			"rotation":[
				0,
				0,
				0.22315146028995514,
				0.9747837781906128
			],
			"scale":[
				4.941770553588867,
				4.941770553588867,
				4.941770553588867
			],
			"translation":[
				9.390127182006836,
				1.3860011100769043,
				-0.0383051335811615
			]
		},
		{
			"mesh":3,
			"name":"collider_plane.002",
			"scale":[
				4.941770553588867,
				4.941770553588867,
				4.941770553588867
			],
			"translation":[
				-12.869102478027344,
				-4.940921783447266,
				-0.22332096099853516
			]
		},
		{
			"mesh":4,
			"name":"collider_plane.003",
			"scale":[
				4.941770553588867,
				4.941770553588867,
				4.941770553588867
			],
			"translation":[
				0.027974247932434082,
				-0.7745575904846191,
				-0.026326656341552734
			]
		},
		{
			"mesh":5,
			"name":"collider_plane.004",
			"scale":[
				4.941770553588867,
				4.941770553588867,
				4.941770553588867
			],
			"translation":[
				-29.06961441040039,
				-11.734720230102539,
				-0.22332096099853516
			]
		},
		{
			"mesh":6,
			"name":"Plane",
			"scale":[
				1.8991281986236572,
				1.8991281986236572,
				13.161819458007812
			],
			"translation":[
				-28.748798370361328,
				-13.587599754333496,
				17.87833023071289
			]
		},
		{
			"name":"Empty",
			"rotation":[
				0.989919900894165,
				0,
				0,
				0.14162832498550415
			],
			"translation":[
				-29.147417068481445,
				-11.292032241821289,
				17.389854431152344
			]
		},
		{
			"mesh":7,
			"name":"collider_plane.005",
			"scale":[
				4.941770553588867,
				4.941770553588867,
				4.941770553588867
			],
			"translation":[
				-29.06961441040039,
				-10.621036529541016,
				29.126619338989258
			]
		}
	],
	"materials":[
		{
			"doubleSided":true,
			"name":"Material.010",
			"pbrMetallicRoughness":{
				"baseColorFactor":[
					0.8002749681472778,
					0.62763911485672,
					0.04160858690738678,
					1
				],
				"metallicFactor":0.9317406415939331,
				"roughnessFactor":0.23720136284828186
			}
		},
		{
			"doubleSided":true,
			"name":"Material.003",
			"normalTexture":{
				"index":0
			},
			"pbrMetallicRoughness":{
				"baseColorTexture":{
					"index":1
				},
				"metallicFactor":0,
				"roughnessFactor":0.5
			}
		},
		{
			"doubleSided":true,
			"name":"Material.002",
			"normalTexture":{
				"index":2
			},
			"pbrMetallicRoughness":{
				"baseColorTexture":{
					"index":3
				},
				"metallicFactor":0,
				"roughnessFactor":0.5
			}
		},
		{
			"doubleSided":true,
			"name":"Material.005",
			"normalTexture":{
				"index":4
			},
			"pbrMetallicRoughness":{
				"baseColorTexture":{
					"index":5
				},
				"metallicFactor":0,
				"roughnessFactor":0.5
			}
		},
		{
			"doubleSided":true,
			"name":"Material.006",
			"normalTexture":{
				"index":6
			},
			"pbrMetallicRoughness":{
				"baseColorTexture":{
					"index":7
				},
				"metallicFactor":0,
				"roughnessFactor":0.5
			}
		},
		{
			"doubleSided":true,
			"name":"Material.009",
			"normalTexture":{
				"index":8
			},
			"pbrMetallicRoughness":{
				"baseColorTexture":{
					"index":9
				},
				"metallicFactor":0,
				"roughnessFactor":0.5
			}
		},
		{
			"doubleSided":true,
			"name":"Material.001",
			"normalTexture":{
				"index":10
			},
			"pbrMetallicRoughness":{
				"baseColorTexture":{
					"index":11
				},
				"metallicFactor":0,
				"roughnessFactor":0.5
			}
		}
	],
	"meshes":[
		{
			"name":"goal_Torus.001",
			"primitives":[
				{
					"attributes":{
						"POSITION":0,
						"NORMAL":1,
						"TEXCOORD_0":2
					},
					"indices":3,
					"material":0
				}
			]
		},
		{
			"name":"Suzanne.001",
			"primitives":[
				{
					"attributes":{
						"POSITION":4,
						"NORMAL":5,
						"TEXCOORD_0":6
					},
					"indices":7
				}
			]
		},
		{
			"name":"collider_Plane.001",
			"primitives":[
				{
					"attributes":{
						"POSITION":8,
						"NORMAL":9,
						"TEXCOORD_0":10
					},
					"indices":11,
					"material":1
				}
			]
		},
		{
			"name":"collider_Plane.003",
			"primitives":[
				{
					"attributes":{
						"POSITION":12,
						"NORMAL":13,
						"TEXCOORD_0":14
					},
					"indices":11,
					"material":2
				}
			]
		},
		{
			"name":"collider_Plane.004",
			"primitives":[
				{
					"attributes":{
						"POSITION":15,
						"NORMAL":16,
						"TEXCOORD_0":17
					},
					"indices":11,
					"material":3
				}
			]
		},
		{
			"name":"collider_Plane.005",
			"primitives":[
				{
					"attributes":{
						"POSITION":18,
						"NORMAL":19,
						"TEXCOORD_0":20
					},
					"indices":11,
					"material":4
				}
			]
		},
		{
			"name":"collider_Plane",
			"primitives":[
				{
					"attributes":{
						"POSITION":21,
						"NORMAL":22,
						"TEXCOORD_0":23
					},
					"indices":24,
					"material":5
				}
			]
		},
		{
			"name":"collider_Plane.002",
			"primitives":[
				{
					"attributes":{
						"POSITION":25,
						"NORMAL":26,
						"TEXCOORD_0":27
					},
					"indices":11,
					"material":6
				}
			]
		}
	],
	"textures":[
		{
			"sampler":0,
			"source":0
		},
		{
			"sampler":0,
			"source":1
		},
		{
			"sampler":0,
			"source":0
		},
		{
			"sampler":0,
			"source":1
		},
		{
			"sampler":0,
			"source":0
		},
		{
			"sampler":0,
			"source":1
		},
		{
			"sampler":0,
			"source":0
		},
		{
			"sampler":0,
			"source":1
		},
		{
			"sampler":0,
			"source":2
		},
		{
			"sampler":0,
			"source":3
		},
		{
			"sampler":0,
			"source":0
		},
		{
			"sampler":0,
			"source":1
		}
	],
	"images":[
		{
			"mimeType":"image/png",
			"name":"wood_floor_nor_gl_4k",
			"uri":"wood_floor_nor_gl_4k.png"
		},
		{
			"mimeType":"image/png",
			"name":"wood_floor_diff_4k",
			"uri":"wood_floor_diff_4k.png"
		},
		{
			"mimeType":"image/png",
			"name":"blue_metal_plate_nor_gl_4k",
			"uri":"blue_metal_plate_nor_gl_4k.png"
		},
		{
			"mimeType":"image/png",
			"name":"blue_metal_plate_diff_4k",
			"uri":"blue_metal_plate_diff_4k.png"
		}
	],
	"accessors":[
		{
			"bufferView":0,
			"componentType":5126,
			"count":2304,
			"max":[
				1.25,
				0.25,
				1.25
			],
			"min":[
				-1.25,
				-0.25,
				-1.25
			],
			"type":"VEC3"
		},
		{
			"bufferView":1,
			"componentType":5126,
			"count":2304,
			"type":"VEC3"
		},
		{
			"bufferView":2,
			"componentType":5126,
			"count":2304,
			"type":"VEC2"
		},
		{
			"bufferView":3,
			"componentType":5123,
			"count":3456,
			"type":"SCALAR"
		},
		{
			"bufferView":4,
			"componentType":5126,
			"count":1970,
			"max":[
				1.3671875,
				0.984375,
				0.8515625
			],
			"min":[
				-1.3671875,
				-0.984375,
				-0.8515625
			],
			"type":"VEC3"
		},
		{
			"bufferView":5,
			"componentType":5126,
			"count":1970,
			"type":"VEC3"
		},
		{
			"bufferView":6,
			"componentType":5126,
			"count":1970,
			"type":"VEC2"
		},
		{
			"bufferView":7,
			"componentType":5123,
			"count":2904,
			"type":"SCALAR"
		},
		{
			"bufferView":8,
			"componentType":5126,
			"count":4,
			"max":[
				1,
				0,
				1
			],
			"min":[
				-1,
				0,
				-1
			],
			"type":"VEC3"
		},
		{
			"bufferView":9,
			"componentType":5126,
			"count":4,
			"type":"VEC3"
		},
		{
			"bufferView":10,
			"componentType":5126,
			"count":4,
			"type":"VEC2"
		},
		{
			"bufferView":11,
			"componentType":5123,
			"count":6,
			"type":"SCALAR"
		},
		{
			"bufferView":12,
			"componentType":5126,
			"count":4,
			"max":[
				1,
				0,
				1
			],
			"min":[
				-1,
				0,
				-1
			],
			"type":"VEC3"
		},
		{
			"bufferView":13,
			"componentType":5126,
			"count":4,
			"type":"VEC3"
		},
		{
			"bufferView":14,
			"componentType":5126,
			"count":4,
			"type":"VEC2"
		},
		{
			"bufferView":15,
			"componentType":5126,
			"count":4,
			"max":[
				1,
				0,
				1
			],
			"min":[
				-1,
				0,
				-1
			],
			"type":"VEC3"
		},
		{
			"bufferView":16,
			"componentType":5126,
			"count":4,
			"type":"VEC3"
		},
		{
			"bufferView":17,
			"componentType":5126,
			"count":4,
			"type":"VEC2"
		},
		{
			"bufferView":18,
			"componentType":5126,
			"count":4,
			"max":[
				1,
				0,
				1
			],
			"min":[
				-1,
				0,
				-1
			],
			"type":"VEC3"
		},
		{
			"bufferView":19,
			"componentType":5126,
			"count":4,
			"type":"VEC3"
		},
		{
			"bufferView":20,
			"componentType":5126,
			"count":4,
			"type":"VEC2"
		},
		{
			"bufferView":21,
			"componentType":5126,
			"count":704,
			"max":[
				1,
				1.548335075378418,
				0.4823169410228729
			],
			"min":[
				-1,
				-0.2457941770553589,
				-1.022284984588623
			],
			"type":"VEC3"
		},
		{
			"bufferView":22,
			"componentType":5126,
			"count":704,
			"type":"VEC3"
		},
		{
			"bufferView":23,
			"componentType":5126,
			"count":704,
			"type":"VEC2"
		},
		{
			"bufferView":24,
			"componentType":5123,
			"count":2016,
			"type":"SCALAR"
		},
		{
			"bufferView":25,
			"componentType":5126,
			"count":4,
			"max":[
				1,
				0,
				1
			],
			"min":[
				-1,
				0,
				-1
			],
			"type":"VEC3"
		},
		{
			"bufferView":26,
			"componentType":5126,
			"count":4,
			"type":"VEC3"
		},
		{
			"bufferView":27,
			"componentType":5126,
			"count":4,
			"type":"VEC2"
		}
	],
	"bufferViews":[
		{
			"buffer":0,
			"byteLength":27648,
			"byteOffset":0,
			"target":34962
		},
		{
			"buffer":0,
			"byteLength":27648,
			"byteOffset":27648,
			"target":34962
		},
		{
			"buffer":0,
			"byteLength":18432,
			"byteOffset":55296,
			"target":34962
		},
		{
			"buffer":0,
			"byteLength":6912,
			"byteOffset":73728,
			"target":34963
		},
		{
			"buffer":0,
			"byteLength":23640,
			"byteOffset":80640,
			"target":34962
		},
		{
			"buffer":0,
			"byteLength":23640,
			"byteOffset":104280,
			"target":34962
		},
		{
			"buffer":0,
			"byteLength":15760,
			"byteOffset":127920,
			"target":34962
		},
		{
			"buffer":0,
			"byteLength":5808,
			"byteOffset":143680,
			"target":34963
		},
		{
			"buffer":0,
			"byteLength":48,
			"byteOffset":149488,
			"target":34962
		},
		{
			"buffer":0,
			"byteLength":48,
			"byteOffset":149536,
			"target":34962
		},
		{
			"buffer":0,
			"byteLength":32,
			"byteOffset":149584,
			"target":34962
		},
		{
			"buffer":0,
			"byteLength":12,
			"byteOffset":149616,
			"target":34963
		},
		{
			"buffer":0,
			"byteLength":48,
			"byteOffset":149628,
			"target":34962
		},
		{
			"buffer":0,
			"byteLength":48,
			"byteOffset":149676,
			"target":34962
		},
		{
			"buffer":0,
			"byteLength":32,
			"byteOffset":149724,
			"target":34962
		},
		{
			"buffer":0,
			"byteLength":48,
			"byteOffset":149756,
			"target":34962
		},
		{
			"buffer":0,
			"byteLength":48,
			"byteOffset":149804,
			"target":34962
		},
		{
			"buffer":0,
			"byteLength":32,
			"byteOffset":149852,
			"target":34962
		},
		{
			"buffer":0,
			"byteLength":48,
			"byteOffset":149884,
			"target":34962
		},
		{
			"buffer":0,
			"byteLength":48,
			"byteOffset":149932,
			"target":34962
		},
		{
			"buffer":0,
			"byteLength":32,
			"byteOffset":149980,
			"target":34962
		},
		{
			"buffer":0,
			"byteLength":8448,
			"byteOffset":150012,
			"target":34962
		},
		{
			"buffer":0,
			"byteLength":8448,
			"byteOffset":158460,
			"target":34962
		},
		{
			"buffer":0,
			"byteLength":5632,
			"byteOffset":166908,
			"target":34962
		},
		{
			"buffer":0,
			"byteLength":4032,
			"byteOffset":172540,
			"target":34963
		},
		{
			"buffer":0,
			"byteLength":48,
			"byteOffset":176572,
			"target":34962
		},
		{
			"buffer":0,
			"byteLength":48,
			"byteOffset":176620,
			"target":34962
		},
		{
			"buffer":0,
			"byteLength":32,
			"byteOffset":176668,
			"target":34962
		}
	],
	"samplers":[
		{
			"magFilter":9729,
			"minFilter":9987
		}
	],
	"buffers":[
		{
			"byteLength":176700,
			"uri":"level0.bin"
		}
	]
}
